<?xml version="1.0" encoding="UTF-8" standalone="no"?>
<!-- Created with Inkscape (http://www.inkscape.org/) -->

<svg
   width="215.64812mm"
   height="141.07616mm"
   viewBox="0 0 215.64812 141.07616"
   version="1.1"
   id="svg1"
   xml:space="preserve"
   xmlns:inkscape="http://www.inkscape.org/namespaces/inkscape"
   xmlns:sodipodi="http://sodipodi.sourceforge.net/DTD/sodipodi-0.dtd"
   xmlns="http://www.w3.org/2000/svg"
   xmlns:svg="http://www.w3.org/2000/svg"><sodipodi:namedview
     id="namedview1"
     pagecolor="#ffffff"
     bordercolor="#000000"
     borderopacity="0.25"
     inkscape:showpageshadow="2"
     inkscape:pageopacity="0.0"
     inkscape:pagecheckerboard="0"
     inkscape:deskcolor="#d1d1d1"
     inkscape:document-units="mm" /><defs
     id="defs1" /><g
     inkscape:label="Layer 1"
     inkscape:groupmode="layer"
     id="layer1"
     transform="translate(9.1057617,-821.09812)"><rect
       style="fill:#29adb2;fill-opacity:1;fill-rule:evenodd;stroke:none;stroke-width:1.44164;stroke-dasharray:none;stroke-opacity:1"
       id="rect8-6-1-8-9"
       width="17.980476"
       height="62.764309"
       x="80.14975"
       y="899.40997"
       ry="7.6288099" /><rect
       style="fill:#29adb2;fill-opacity:1;fill-rule:evenodd;stroke:none;stroke-width:1.1418;stroke-dasharray:none;stroke-opacity:1"
       id="rect8-34-6-8-1-7"
       width="17.980476"
       height="39.371319"
       x="80.14975"
       y="849.86865"
       ry="8.0502596" /><rect
       style="fill:#0766ad;fill-opacity:1;fill-rule:evenodd;stroke:none;stroke-width:1.1418;stroke-dasharray:none;stroke-opacity:1"
       id="rect8-34-2-8-1-2-2"
       width="17.980476"
       height="39.371319"
       x="-404.26416"
       y="771.53564"
       ry="8.0502596"
       transform="rotate(-37.079986)" /><rect
       style="fill:#29adb2;fill-opacity:1;fill-rule:evenodd;stroke:none;stroke-width:1.44164;stroke-dasharray:none;stroke-opacity:1"
       id="rect8-3-1-0-3-2"
       width="17.980476"
       height="62.764309"
       x="161.70316"
       y="898.6662"
       ry="7.6288099" /><rect
       style="fill:#0766ad;fill-opacity:1;fill-rule:evenodd;stroke:none;stroke-width:1.44164;stroke-dasharray:none;stroke-opacity:1"
       id="rect8-3-6-0-7-3-0"
       width="17.980476"
       height="62.764309"
       x="673.10168"
       y="524.35876"
       ry="7.6288099"
       inkscape:transform-center-x="-15.49044"
       inkscape:transform-center-y="-18.982191"
       transform="rotate(38.826448)" /><rect
       style="fill:#29adb2;fill-opacity:1;fill-rule:evenodd;stroke:none;stroke-width:2.16136;stroke-dasharray:none;stroke-opacity:1"
       id="rect8-5-2-6-2-33"
       width="17.980476"
       height="141.07614"
       x="120.92645"
       y="821.09814"
       ry="8.1906929" /><rect
       style="fill:#0766ad;fill-opacity:1;fill-rule:evenodd;stroke:none;stroke-width:0.450688;stroke-dasharray:none;stroke-opacity:1"
       id="rect11"
       width="20.21995"
       height="63.947559"
       x="13.135422"
       y="862.31628"
       ry="0" /><path
       d="m 35.688928,894.29005 v 13.77745 c 3.37313,1.36796 5.74228,4.66572 5.74228,8.54108 v 23.24716 c 0,5.10772 -4.11188,9.2196 -9.21959,9.2196 h -18.59887 c -5.1077097,0 -9.2201098,-4.11188 -9.2201098,-9.2196 v -23.24716 c 0,-4.12608 2.6854001,-7.60006 6.4094298,-8.78396 V 894.29005 H 5.7729183 c -8.2428401,0 -14.8786801,6.63584 -14.8786801,14.87868 v 38.12687 c 0,8.24284 6.63584,14.87868 14.8786801,14.87868 H 40.050928 c 8.24283,0 14.87868,-6.63584 14.87868,-14.87868 v -38.12687 c 0,-8.24284 -6.63585,-14.87868 -14.87868,-14.87868 z"
       style="fill:#0766ad;fill-rule:evenodd;stroke-width:0.677381"
       id="path12" /><path
       d="m 5.7729183,821.95596 c -8.2428401,0 -14.8786801,6.63636 -14.8786801,14.8792 v 38.12687 c 0,8.24284 6.63584,14.87868 14.8786801,14.87868 H 10.802068 V 876.3051 C 7.0780483,875.12133 4.3926382,871.64825 4.3926382,867.52217 V 844.2745 c 0,-5.10772 4.1124001,-9.21959 9.2201098,-9.21959 h 18.59887 c 5.10771,0 9.21959,4.11187 9.21959,9.21959 v 23.24767 c 0,3.87531 -2.36922,7.1722 -5.74228,8.54005 v 13.77849 h 4.362 c 8.24283,0 14.87868,-6.63584 14.87868,-14.87868 v -38.12687 c 0,-8.24284 -6.63585,-14.8792 -14.87868,-14.8792 z"
       style="fill:#0766ad;fill-rule:evenodd;stroke-width:0.677381"
       id="path11" /></g></svg>
